# xmcd
#
# Track frame offsets: 
#        150
#        16585
#        33298
#
# Disc length: 647 seconds
#
# Revision: 0
# Processed by: cddbd v1.5.2PL0 Copyright (c) Steve Scherf et al.
# Submitted via: ExactAudioCopyFreeDBPlugin 1.0
#
DISCID=12028503
DTITLE=Wayne Marshall - Ooh  Aah G-Spot Part One
DYEAR=1994
DGENRE=R&B
TTITLE0=Ooh  Aah  G-Spot - Boreham Wood Mix (For Those Who Know)
TTITLE1=Back In The Day - With A Little Love Mix
TTITLE2=Ooh  Aah  G-Spot - Lighter In The Air Mix (Featuring TopCat)
EXTD=
EXTT0=
EXTT1=
EXTT2=
PLAYORDER=
